<?xml version="1.0" encoding="utf-8"?>
<svg width="32" height="32" viewBox="0 0 32 32" xmlns="http://www.w3.org/2000/svg" xmlns:bx="https://boxy-svg.com">
  <defs>
    <bx:export>
      <bx:file format="png" path="favicon-180.png" width="180" height="180"/>
      <bx:file format="png" path="favicon-192.png" width="192" height="192"/>
      <bx:file format="png" path="favicon-512.png" width="512" height="512"/>
      <bx:file format="png" path="favicon-512-maskable.png" width="512" height="512" background="#fff"/>
    </bx:export>
  </defs>
  <path d="M26.231 0H5.769C2.58287 0 0 2.58287 0 5.769V26.231C0 29.4171 2.58287 32 5.769 32H26.231C29.4171 32 32 29.4171 32 26.231V5.769C32 2.58287 29.4171 0 26.231 0Z" fill="black"/>
  <path d="M24.7844 17.5042C25.073 17.6829 25.0707 18.1044 24.7844 18.2831L16.4838 23.4334C16.1883 23.6167 15.8126 23.6167 15.517 23.4334L7.21651 18.2808C6.92783 18.1021 6.92783 17.6829 7.21651 17.5019L9.46174 16.1021L15.5216 19.8342C15.8171 20.0152 16.1883 20.0152 16.4816 19.8342L22.5414 16.1021L24.7866 17.5019L24.7844 17.5042Z" fill="white"/>
  <path d="M20.0582 12.4458L16.4841 14.659C16.1886 14.8422 15.8151 14.8422 15.5196 14.659L11.9409 12.4458L10.0966 13.5822C9.80568 13.7609 9.80568 14.1847 10.0966 14.3634L15.5196 17.7015C15.8151 17.8825 16.1886 17.8825 16.4818 17.7015L21.8796 14.3611C22.1682 14.1824 22.1682 13.7632 21.8796 13.5822L20.0559 12.4481L20.0582 12.4458Z" fill="white"/>
  <path d="M16.4814 8.13861C16.1858 7.95533 15.8124 7.95304 15.5168 8.13632L12.5522 9.96001C12.2612 10.1387 12.2612 10.5603 12.5522 10.739L15.4962 12.5604C15.7918 12.7436 16.1652 12.7436 16.4608 12.5604L19.3979 10.7367C19.6866 10.558 19.6866 10.1387 19.3979 9.95772L16.4814 8.13861Z" fill="white"/>
</svg>